<svg width="500" height="500" viewBox="0 0 500 500" fill="none" xmlns="http://www.w3.org/2000/svg">
<g clip-path="url(#clip0_104_15)">
<path opacity="0.8" d="M462.427 471.346C387.52 463.771 381.353 417.944 330.943 401.471C330.179 401.221 329.611 400.542 329.533 399.743L322.217 325.075C322.109 323.981 321.139 323.179 320.045 323.279L305.87 324.57C304.762 324.671 303.785 323.849 303.695 322.74L300.348 281.505C300.259 280.406 299.298 279.587 298.199 279.673L285.997 280.622C284.863 280.71 283.884 279.837 283.843 278.701L283.141 259.358C283.1 258.223 282.123 257.35 280.991 257.436L268.849 258.355C267.689 258.443 266.691 257.532 266.634 256.371C266.286 249.281 264.693 233.205 264.421 230.483C264.394 230.212 264.313 229.965 264.181 229.728L254.214 211.767C254.071 211.51 253.987 211.225 253.967 210.931L252.587 190.529C252.51 189.39 251.497 188.547 250.364 188.677L241.006 189.747C239.88 189.875 238.872 189.044 238.785 187.914L237.59 172.507C237.508 171.45 236.615 170.64 235.555 170.662L221.787 170.939C220.678 170.962 219.763 170.078 219.747 168.97L219.535 154.801C219.517 153.559 218.381 152.634 217.16 152.867L178.549 160.233C177.475 160.438 176.435 159.742 176.215 158.67L172.053 138.34C171.815 137.179 170.626 136.478 169.495 136.833L124.38 150.984C122.419 151.599 120.917 149.211 122.32 147.71L142.924 125.666C143.977 124.539 143.413 122.695 141.91 122.35L90.5009 110.577C89.7805 110.412 89.1924 109.829 89.0413 109.105C83.5882 82.9895 141.1 93.5149 157.296 81.7297C172.96 70.3319 103.413 36.3038 39.5401 27.4072" stroke="url(#paint0_linear_104_15)" stroke-width="3" stroke-miterlimit="1.62427" stroke-linejoin="round"/>
</g>
<defs>
<linearGradient id="paint0_linear_104_15" x1="50.2647" y1="24.3567" x2="420.831" y2="457.201" gradientUnits="userSpaceOnUse">
<stop stop-color="#6C7822" stop-opacity="0"/>
<stop offset="0.10042" stop-color="#414813"/>
<stop offset="0.863429" stop-color="#424A11"/>
<stop offset="1" stop-opacity="0"/>
<stop offset="1" stop-color="#6C7822" stop-opacity="0"/>
</linearGradient>
<clipPath id="clip0_104_15">
<rect width="500" height="500" fill="white"/>
</clipPath>
</defs>
</svg>
